<svg width="14" height="16" viewBox="0 0 14 16" fill="none" xmlns="http://www.w3.org/2000/svg">
<path d="M13.4 12.6817L8.95001 7.87056L13.4 3.05941C13.96 2.45396 13.96 1.45929 13.4 0.853837C12.84 0.248387 11.92 0.248387 11.36 0.853837L6.91 5.66501L2.46 0.853837C1.9 0.248387 0.980001 0.248387 0.420001 0.853837C-0.14 1.45929 -0.14 2.45396 0.420001 3.05941L4.87 7.87056L0.420001 12.6817C-0.14 13.2872 -0.14 14.2819 0.420001 14.8873C0.980001 15.4928 1.9 15.4928 2.46 14.8873L6.91 10.0761L11.36 14.8873C11.92 15.4928 12.84 15.4928 13.4 14.8873C13.97 14.2819 13.97 13.298 13.4 12.6817Z" fill="#244579"/>
</svg>
