<svg width="38" height="38" viewBox="0 0 38 38" fill="none" xmlns="http://www.w3.org/2000/svg">
<path d="M17.4785 0.00744629L16.3356 0.0742432L15.1963 0.204126V2.1301L16.3356 1.98167L17.4785 1.90745H18.6215L19.7645 1.98167L20.9 2.1301V0.204126L19.7645 0.0742432L18.6215 0.00744629H17.4785ZM35.3838 1.27288L1.18379 35.4729L2.52715 36.8162L36.7272 2.61624L35.3838 1.27288ZM17.7568 3.80374L16.5953 3.86682L15.4375 4.01155L14.2908 4.24163L13.1701 4.55334L12.0717 4.9467L11.0066 5.41799L9.97129 5.9635L8.98789 6.58323L8.04532 7.27346L7.15469 8.02678L6.32344 8.84319L5.55528 9.71897L4.8502 10.6467L4.21192 11.6264L3.64414 12.6432L3.15801 13.7045L2.74239 14.7918L2.41211 15.9088L2.16348 17.0518L1.99278 18.2059L1.91114 19.3674V20.5364L1.99278 21.6942L2.16348 22.8483L2.41211 23.9912L2.74239 25.1045L3.15801 26.1955L3.64414 27.2569L4.21192 28.2737L4.79453 29.1717L6.16387 27.8024L6.14532 27.7801L5.57383 26.8338L5.07657 25.8467L4.66094 24.8225L4.32325 23.7686L4.06719 22.6924L3.89649 21.6014L3.81114 20.503V19.3971L3.89649 18.2949L4.06719 17.2039L4.32325 16.1315L4.66094 15.0776L5.07657 14.0533L5.57383 13.0662L6.14532 12.1199L6.78731 11.2182L7.4961 10.3758L8.27168 9.58538L9.10293 8.85803L9.98985 8.19748L10.925 7.60745L11.901 7.09534L12.9178 6.65745L13.9643 6.3012L15.033 6.02288L16.1203 5.83362L17.2225 5.72229L18.3246 5.70374L19.4268 5.76682L20.5215 5.91897L21.6014 6.14905L22.6627 6.46819L23.6906 6.86526L24.6926 7.34026L25.6463 7.89319L25.8986 8.0676L27.2643 6.70198L26.6223 6.26409L25.6129 5.68147L24.5627 5.17307L23.4791 4.7426L22.3695 4.39006L21.234 4.11916L20.0873 3.92991L18.9258 3.82229L17.7568 3.80374ZM5.35118 4.56448L4.40118 5.40315L3.50313 6.3012L2.66075 7.2512L4.01153 8.60198L4.63125 7.87463L5.28809 7.18811L5.97461 6.53127L6.69825 5.91526L5.35118 4.56448ZM17.0963 7.60002V16.8699L18.9963 14.9699V7.60002H17.0963ZM31.2981 10.7321L29.9287 12.1014L30.2479 12.5838L30.7822 13.5524L31.2387 14.558L31.6172 15.6008L31.9178 16.6658L32.1293 17.7494L32.2555 18.8479L32.3 19.95L32.2555 21.0522L32.1293 22.1506L31.9178 23.2342L31.6172 24.2992L31.2387 25.3383L30.7822 26.344L30.2479 27.3125L29.6393 28.2365L28.9639 29.1123L28.2217 29.9287L27.4201 30.6858L26.5592 31.3797L25.6463 32.0069L24.6926 32.5598L23.6906 33.0348L22.6627 33.4319L21.6014 33.751L20.5215 33.9848L19.4268 34.1332L18.3246 34.1963L17.2225 34.1778L16.1203 34.0664L15.033 33.8735L13.9643 33.5989L12.9178 33.2426L11.901 32.8047L10.925 32.2926L10.1977 31.8324L8.82832 33.2018L8.98789 33.3168L9.97129 33.9365L11.0066 34.4821L12.0717 34.9496L13.1701 35.3467L14.2908 35.6547L15.4375 35.8885L16.5953 36.0332L17.7568 36.0963L18.9258 36.0778L20.0873 35.9739L21.234 35.7809L22.3695 35.51L23.4791 35.1612L24.5627 34.727L25.6129 34.2186L26.6223 33.636L27.5908 32.9791L28.5037 32.2555L29.3647 31.4725L30.1662 30.6227L30.9047 29.7209L31.5764 28.7709L32.1813 27.7727L32.7045 26.7299L33.1572 25.6537L33.5283 24.5516L33.8215 23.4198L34.0293 22.2768L34.1555 21.1153L34.2 19.95L34.1555 18.7848L34.0293 17.6233L33.8215 16.4803L33.5283 15.3485L33.1572 14.2463L32.7045 13.1701L32.1813 12.1274L31.5764 11.1291L31.2981 10.7321Z" fill="#26B9C2"/>
</svg>
