<svg width="250" height="501" viewBox="0 0 250 501" fill="none" xmlns="http://www.w3.org/2000/svg">
<path d="M198.989 401.416L196.513 399.522C229.462 356.261 246.883 304.58 246.883 250.044C246.883 165.56 204.379 87.8343 133.179 42.1255L134.869 39.5035C206.971 85.7658 250 164.482 250 250.044C250 305.25 232.346 357.601 198.989 401.416Z" fill="#6B9BA5"/>
<path d="M0.0145416 500.029C-137.84 500.029 -250 387.869 -250 250.015C-250 112.16 -137.84 0 0.0145416 0V3.11715C-136.121 3.11715 -246.854 113.879 -246.854 249.985C-246.854 386.121 -136.092 496.854 0.0145416 496.854C41.1495 496.854 81.8766 486.541 117.768 467.022L119.254 469.76C82.8963 489.6 41.6448 500.029 0.0145416 500.029Z" fill="#6B9BA5"/>
<path d="M0.0146103 475.908C-24.748 475.908 -49.0735 471.917 -72.3212 464.08L-70.3111 458.166C-47.7043 465.799 -24.0488 469.673 0.0436783 469.673C113.165 469.673 207.117 384.927 218.508 272.534L224.742 273.175C212.973 388.714 116.37 475.908 0.0146103 475.908Z" fill="#6B9BA5"/>
<path d="M216.818 214.939C208.632 163.987 182.471 117.287 143.113 83.4646C103.347 49.2632 52.5112 30.4436 0.0146027 30.4436C-42.3731 30.4436 -83.5081 42.5336 -118.962 65.4316C-160.272 92.117 -191.793 132.32 -207.729 178.64L-213.643 176.601C-197.27 128.969 -164.846 87.6305 -122.371 60.1878C-85.897 36.6488 -43.5967 24.2092 -0.0145569 24.2092C53.997 24.2092 106.261 43.5823 147.162 78.7451C187.627 113.529 214.546 161.569 222.965 213.978L216.818 214.939Z" fill="#6B9BA5"/>
<path d="M0.0146027 413.156C-89.9463 413.156 -163.127 339.976 -163.127 250.015C-163.127 213.599 -151.387 179.165 -129.217 150.44L-124.264 154.256C-145.589 181.903 -156.864 214.997 -156.864 250.015C-156.864 336.509 -86.4796 406.893 0.0146027 406.893C15.3674 406.893 30.5454 404.679 45.0825 400.309L46.8887 406.31C31.7398 410.884 15.95 413.156 0.0146027 413.156Z" fill="#6B9BA5"/>
<path d="M110.193 370.331L105.969 365.728C138.335 336.072 156.893 293.917 156.893 250.043C156.893 219.163 147.92 189.273 130.965 163.608L136.18 160.17C153.834 186.855 163.156 217.939 163.156 250.073C163.127 295.665 143.841 339.509 110.193 370.331Z" fill="#6B9BA5"/>
<path d="M97.6082 127.192C69.612 104.906 35.8475 93.1361 0.0145874 93.1361C-31.4193 93.1361 -61.7462 102.4 -87.7032 119.938L-91.1991 114.752C-64.2225 96.5156 -32.672 86.9019 0.0145874 86.9019C37.3041 86.9019 72.4087 99.1375 101.512 122.327L97.6082 127.192Z" fill="#6B9BA5"/>
<path d="M0.0146103 385.131C-21.9512 385.131 -43.7715 379.741 -63.0571 369.545L-61.6005 366.777C-42.7518 376.741 -21.456 382.014 -0.0145493 382.014C59.2117 382.014 111.534 342.189 127.236 285.148L130.237 285.993C114.214 344.374 60.6392 385.131 0.0146103 385.131Z" fill="#6B9BA5"/>
<path d="M-95.5108 345.598C-121.031 320.078 -135.102 286.139 -135.102 250.043C-135.102 175.552 -74.5063 114.927 0.0144958 114.927C74.5061 114.927 135.131 175.552 135.131 250.043H132.014C132.014 177.271 72.8164 118.074 0.0435638 118.074C-72.7293 118.074 -131.926 177.271 -131.926 250.043C-131.926 285.294 -118.205 318.446 -93.2385 343.384L-95.5108 345.598Z" fill="#6B9BA5"/>
<path d="M0.0145569 334.061C-46.3351 334.061 -84.0325 296.364 -84.0325 250.014C-84.0325 203.665 -46.3351 165.967 0.0145569 165.967V172.231C-42.8684 172.231 -77.7691 207.131 -77.7691 250.014C-77.7691 292.897 -42.8684 327.798 0.0145569 327.798C42.8975 327.798 77.7981 292.897 77.7981 250.014H84.0616C84.0325 296.364 46.3351 334.061 0.0145569 334.061Z" fill="#6B9BA5"/>
<path d="M0.0144844 291.79C-23.0293 291.79 -41.7614 273.058 -41.7614 250.014H-38.6443C-38.6443 271.31 -21.3105 288.644 -0.0146751 288.644C21.2811 288.644 38.615 271.31 38.615 250.014C38.615 228.719 21.2811 211.385 -0.0146751 211.385C-11.8424 211.385 -22.8545 216.687 -30.2542 225.951L-32.7013 223.999C-24.719 213.978 -12.8038 208.239 -0.0146751 208.239C23.0291 208.239 41.7612 226.971 41.7612 250.014C41.7612 273.058 23.0291 291.79 0.0144844 291.79Z" fill="#6B9BA5"/>
</svg>
