<svg width="30" height="30" viewBox="0 0 30 30" fill="none" xmlns="http://www.w3.org/2000/svg">
<g opacity="0.7">
<path d="M30 0H0V30H30V0Z" fill="black"/>
<path d="M7.06041 4.5564C8.43444 4.55752 9.56768 5.6924 9.56471 7.07328C9.56142 8.5192 8.3615 9.60898 7.04349 9.57758C5.70665 9.60464 4.53181 8.48806 4.53207 7.06373C4.53207 5.68232 5.66972 4.55534 7.06041 4.5564Z" fill="white"/>
<path d="M8.52022 25.4407H5.57631C5.19424 25.4407 4.88452 25.131 4.88452 24.7489V12.1901C4.88452 11.808 5.19424 11.4983 5.57631 11.4983H8.52022C8.90229 11.4983 9.21201 11.808 9.21201 12.1901V24.749C9.21194 25.131 8.90229 25.4407 8.52022 25.4407Z" fill="white"/>
<path d="M25.4679 15.9096C25.4679 13.2768 23.3335 11.1423 20.7006 11.1423H19.9456C18.5051 11.1423 17.2325 11.861 16.4671 12.9596C16.3836 13.0793 16.3063 13.2037 16.2353 13.332C16.2108 13.3284 16.1962 13.3265 16.1959 13.3271V11.7855C16.1959 11.627 16.0674 11.4983 15.9087 11.4983H12.2358C12.0772 11.4983 11.9486 11.6269 11.9486 11.7855V25.1538C11.9486 25.3123 12.0771 25.4409 12.2357 25.441L15.9886 25.4419C16.1473 25.442 16.2759 25.3133 16.2759 25.1547V17.4315C16.2759 16.0965 17.3407 14.988 18.6756 14.9729C19.3571 14.9652 19.9749 15.2383 20.4201 15.6838C20.8595 16.123 21.1312 16.7302 21.1312 17.4006V25.1557C21.1312 25.3142 21.2598 25.4428 21.4183 25.4429L25.1805 25.4438C25.3391 25.4439 25.4678 25.3152 25.4678 25.1566V15.9096H25.4679Z" fill="white"/>
</g>
</svg>
