<svg width="17" height="28" viewBox="0 0 17 28" fill="none" xmlns="http://www.w3.org/2000/svg">
<path d="M8.26493 0C3.74069 0 0.0599976 3.68069 0.0599976 8.20493C0.0599976 9.43875 0.327252 10.6245 0.854125 11.7301C0.864731 11.7538 0.875867 11.777 0.887745 11.8002L7.08699 23.8033C7.31458 24.2438 7.76902 24.5206 8.26482 24.5206C8.76073 24.5206 9.21516 24.2439 9.44265 23.8033L15.6402 11.8035C15.6509 11.7828 15.6609 11.762 15.6704 11.7409C16.2008 10.6321 16.4696 9.44267 16.4696 8.20493C16.4699 3.68069 12.7892 0 8.26493 0ZM8.26493 12.4996C5.89686 12.4996 3.97029 10.573 3.97029 8.20493C3.97029 5.83697 5.89686 3.9104 8.26493 3.9104C10.633 3.9104 12.5596 5.83697 12.5596 8.20493C12.5596 10.573 10.633 12.4996 8.26493 12.4996Z" fill="#C50985"/>
<path d="M11.4254 26.4092H5.10442C4.66504 26.4092 4.30902 26.7652 4.30902 27.2046C4.30902 27.644 4.66504 28 5.10442 28H11.4254C11.8648 28 12.2208 27.644 12.2208 27.2046C12.2208 26.7652 11.8647 26.4092 11.4254 26.4092Z" fill="#C50985"/>
</svg>
