<svg width="23" height="30" viewBox="0 0 23 30" fill="none" xmlns="http://www.w3.org/2000/svg">
<path d="M11.1366 6.84321C13.0233 6.84321 14.5579 5.30829 14.5579 3.42161C14.5579 1.53492 13.023 0 11.1366 0C9.24996 0 7.71472 1.53492 7.71472 3.42161C7.71472 5.30829 9.24996 6.84321 11.1366 6.84321Z" fill="#F980BF"/>
<path d="M22.0923 3.40394L21.6885 2.81978C21.4018 2.40518 20.7838 2.29624 20.3721 2.59053L13.305 7.6459H8.96797L1.90088 2.59053C1.74079 2.47591 1.55228 2.41528 1.35587 2.41528C1.04769 2.41528 0.759395 2.56653 0.584463 2.81978L0.180286 3.40425C-0.114952 3.8318 -0.0116977 4.42511 0.410793 4.72761L7.53219 9.82119V18.0481L5.79866 22.1602C5.5953 22.6421 5.54983 23.4132 5.69445 23.9159L7.13528 28.9173C7.29979 29.4878 7.89343 29.9346 8.48706 29.9346H9.48266C9.79811 29.9346 10.0769 29.8042 10.2478 29.5769C10.4189 29.3495 10.4669 29.0455 10.3794 28.7423L8.9386 23.741C8.83503 23.3819 8.88524 22.7712 9.04565 22.4337L10.5777 19.2117H11.6633L13.2267 22.4997C13.3871 22.8369 13.437 23.4479 13.3334 23.807L11.8929 28.808C11.8057 29.1111 11.8537 29.4152 12.0249 29.6426C12.196 29.8699 12.4748 30 12.79 30H13.7856C14.3792 30 14.9728 29.5532 15.1373 28.9826L16.5782 23.9813C16.7234 23.477 16.671 22.7062 16.4588 22.2262L14.7344 18.3291C14.736 18.307 14.7411 18.2862 14.7411 18.2637V9.8215L21.8621 4.7273C22.2843 4.42511 22.3879 3.83148 22.0923 3.40394Z" fill="#F980BF"/>
</svg>
