<svg width="25" height="24" viewBox="0 0 25 24" fill="none" xmlns="http://www.w3.org/2000/svg">
<path d="M23.18 17.5785L20.7 15.5785C19.86 14.8985 18.66 14.8581 17.78 15.4985L15.42 17.2185C15.1 17.4585 14.6604 17.4185 14.38 17.1385L10.5 13.6185L6.94 9.69846C6.66 9.41846 6.62 8.97846 6.86 8.65846L8.58 6.29846C9.22 5.41846 9.18 4.21846 8.5 3.37846L6.5 0.898465C5.62 -0.221534 3.94 -0.301534 2.94 0.698465L0.779998 2.85846C0.299998 3.33846 0.0599976 4.01846 0.0599976 4.65846C0.339997 9.73846 2.66 14.5785 6.06 17.9785C9.46 21.3785 14.26 23.6985 19.38 23.9785C20.06 24.0185 20.7 23.7381 21.18 23.2581L23.34 21.0985C24.42 20.1385 24.3 18.4585 23.18 17.5785Z" fill="#C50985"/>
</svg>
