<svg width="14" height="14" viewBox="0 0 14 14" fill="none" xmlns="http://www.w3.org/2000/svg">
<path d="M13.4 11.36L8.95 6.90999L13.4 2.45998C13.96 1.89998 13.96 0.98 13.4 0.42C12.84 -0.14 11.92 -0.14 11.36 0.42L6.91001 4.86998L2.46001 0.42C1.90001 -0.14 0.98 -0.14 0.42 0.42C-0.14 0.98 -0.14 1.89998 0.42 2.45998L4.87 6.90999L0.42 11.36C-0.14 11.92 -0.14 12.84 0.42 13.4C0.98 13.96 1.90001 13.96 2.46001 13.4L6.91001 8.95L11.36 13.4C11.92 13.96 12.84 13.96 13.4 13.4C13.97 12.84 13.97 11.93 13.4 11.36Z" fill="#DA5077"/>
</svg>
