<svg width="31" height="34" viewBox="0 0 31 34" fill="none" xmlns="http://www.w3.org/2000/svg">
<path d="M30.2066 17.0532C30.2066 10.1577 25.5472 4.14416 18.867 2.42898C18.2281 2.26232 17.5754 2.65119 17.4157 3.29004C17.249 3.92889 17.6379 4.58164 18.2767 4.74135C23.8945 6.17877 27.8179 11.2479 27.8179 17.0532C27.8179 22.1709 24.7694 26.7054 20.2072 28.6983L21.3113 26.129C21.5682 25.5249 21.2904 24.8235 20.6863 24.5597C20.0822 24.3027 19.3808 24.5805 19.117 25.1846L16.9643 30.1982C16.7074 30.8024 16.9851 31.5037 17.5893 31.7676L22.6029 33.9202C23.3528 34.1841 23.9778 33.7466 24.1722 33.2953C24.4292 32.6912 24.1514 31.9898 23.5473 31.7259L21.3668 30.7885C26.679 28.3858 30.2066 23.0528 30.2066 17.0532Z" fill="#F7BB20"/>
<path d="M11.9299 29.3649C6.31214 27.9205 2.38875 22.8583 2.38875 17.0531C2.38875 12.0048 5.35386 7.52584 9.81194 5.49124L8.77728 7.89388C8.52035 8.49801 8.78422 9.22713 9.40224 9.46323C10.1244 9.73405 10.7355 9.40768 10.9716 8.83827L13.1243 3.81772C13.3326 3.33164 13.3256 2.60251 12.4993 2.24836L7.48568 0.0957082C6.88155 -0.161222 6.1802 0.11654 5.91633 0.720673C5.6594 1.32481 5.93716 2.02615 6.54129 2.29003L8.87449 3.28997C3.54146 5.69956 0 11.0395 0 17.0531C0 23.9485 4.6664 29.9551 11.3396 31.6772C12.1451 31.8856 12.6521 31.3578 12.7909 30.8162C12.9506 30.1773 12.5687 29.5315 11.9299 29.3649Z" fill="#F7BB20"/>
<path d="M17.9157 21.5528C18.5267 20.9139 18.8323 20.1084 18.8323 19.1502C18.8323 18.7127 18.7559 18.3099 18.6101 17.935C18.4642 17.56 18.2559 17.2405 17.9851 16.9628C17.7143 16.692 17.3601 16.4628 16.9296 16.2684C16.7004 16.1712 16.2421 16.0323 15.5408 15.8587V11.8728C15.9921 11.9631 16.3463 12.1575 16.6102 12.4492C16.8671 12.7408 17.0407 13.1574 17.124 13.6991L18.5545 13.4838C18.4295 12.6089 18.0684 11.9145 17.4643 11.4145C16.9921 11.0187 16.3532 10.7826 15.5477 10.7062V10.0465H14.7283V10.7062C13.8117 10.7965 13.1173 11.0534 12.6521 11.4631C11.9507 12.0742 11.6035 12.8727 11.6035 13.8588C11.6035 14.4143 11.7215 14.9073 11.9646 15.3448C12.2007 15.7823 12.5409 16.1226 12.9854 16.3656C13.5826 16.6989 14.1659 16.9211 14.7353 17.0253V21.4348C14.1936 21.3792 13.7214 21.1014 13.3326 20.6084C13.0618 20.2612 12.8673 19.7126 12.7632 18.9696L11.3674 19.2335C11.416 19.9487 11.6035 20.5598 11.916 21.0598C12.2285 21.5597 12.6034 21.9208 13.0409 22.143C13.4715 22.3653 14.0409 22.518 14.7283 22.6083V23.9902H15.5477V22.5875C16.5199 22.5389 17.3115 22.1917 17.9157 21.5528ZM14.7353 15.6851C14.1034 15.4976 13.6589 15.2407 13.3951 14.9212C13.1312 14.6018 12.9993 14.206 12.9993 13.7338C12.9993 13.2547 13.152 12.845 13.4645 12.4978C13.777 12.1506 14.2006 11.9353 14.7353 11.852V15.6851ZM16.881 20.7265C16.5268 21.1292 16.0824 21.3584 15.5477 21.4278V17.2128C16.2907 17.4558 16.7907 17.7266 17.0407 18.0322C17.2907 18.3377 17.4157 18.7405 17.4157 19.2474C17.4087 19.8307 17.2351 20.3306 16.881 20.7265Z" fill="#F7BB20"/>
</svg>
