<svg width="559" height="508" viewBox="0 0 559 508" fill="none" xmlns="http://www.w3.org/2000/svg">
<path d="M171.876 354.903C171.876 355.753 171.186 356.443 170.336 356.443C169.486 356.443 168.796 355.753 168.796 354.903C168.796 354.053 169.486 353.363 170.336 353.363C171.186 353.373 171.876 354.053 171.876 354.903Z" fill="white"/>
<path d="M296.036 12.8634C296.887 12.8634 297.576 12.1739 297.576 11.3234C297.576 10.4729 296.887 9.78345 296.036 9.78345C295.186 9.78345 294.496 10.4729 294.496 11.3234C294.496 12.1739 295.186 12.8634 296.036 12.8634Z" fill="white"/>
<g opacity="0.7">
<path opacity="0.7" d="M55.5459 234.803L276.426 5.29346" stroke="#969696" stroke-width="2" stroke-miterlimit="10" stroke-linecap="round" stroke-linejoin="round" stroke-dasharray="0.3 0.3"/>
<path opacity="0.7" d="M57.3159 253.523L292.076 9.19336" stroke="#969696" stroke-width="2" stroke-miterlimit="10" stroke-linecap="round" stroke-linejoin="round" stroke-dasharray="0.3 0.3"/>
<path opacity="0.7" d="M64.4058 266.554L305.816 15.1335" stroke="#969696" stroke-width="2" stroke-miterlimit="10" stroke-linecap="round" stroke-linejoin="round" stroke-dasharray="0.3 0.3"/>
<path opacity="0.7" d="M74.3857 276.513L321.196 19.3335" stroke="#969696" stroke-width="2" stroke-miterlimit="10" stroke-linecap="round" stroke-linejoin="round" stroke-dasharray="0.3 0.3"/>
<path opacity="0.7" d="M82.1558 288.824L336.706 23.3835" stroke="#969696" stroke-width="2" stroke-miterlimit="10" stroke-linecap="round" stroke-linejoin="round" stroke-dasharray="0.3 0.3"/>
<path opacity="0.7" d="M91.2959 299.673L353.166 26.4233" stroke="#969696" stroke-width="2" stroke-miterlimit="10" stroke-linecap="round" stroke-linejoin="round" stroke-dasharray="0.3 0.3"/>
<path opacity="0.7" d="M100.366 310.604L365.766 33.5735" stroke="#969696" stroke-width="2" stroke-miterlimit="10" stroke-linecap="round" stroke-linejoin="round" stroke-dasharray="0.3 0.3"/>
<path opacity="0.7" d="M109.446 321.513L381.186 37.7234" stroke="#969696" stroke-width="2" stroke-miterlimit="10" stroke-linecap="round" stroke-linejoin="round" stroke-dasharray="0.3 0.3"/>
<path opacity="0.7" d="M118.806 332.123L393.726 44.9434" stroke="#969696" stroke-width="2" stroke-miterlimit="10" stroke-linecap="round" stroke-linejoin="round" stroke-dasharray="0.3 0.3"/>
<path opacity="0.7" d="M127.076 343.914L404.166 54.4036" stroke="#969696" stroke-width="2" stroke-miterlimit="10" stroke-linecap="round" stroke-linejoin="round" stroke-dasharray="0.3 0.3"/>
<path opacity="0.7" d="M136.456 354.504L415.946 62.4336" stroke="#969696" stroke-width="2" stroke-miterlimit="10" stroke-linecap="round" stroke-linejoin="round" stroke-dasharray="0.3 0.3"/>
<path opacity="0.7" d="M146.406 364.484L427.556 70.6536" stroke="#969696" stroke-width="2" stroke-miterlimit="10" stroke-linecap="round" stroke-linejoin="round" stroke-dasharray="0.3 0.3"/>
<path opacity="0.7" d="M154.796 376.134L426.006 92.9036" stroke="#969696" stroke-width="2" stroke-miterlimit="10" stroke-linecap="round" stroke-linejoin="round" stroke-dasharray="0.3 0.3"/>
</g>
<g opacity="0.7">
<g opacity="0.7">
<path opacity="0.7" d="M185.726 364.993L406.616 135.483" stroke="#969696" stroke-width="2" stroke-miterlimit="10" stroke-linecap="round" stroke-linejoin="round" stroke-dasharray="0.3 0.3"/>
<path opacity="0.7" d="M187.496 383.713L422.266 139.383" stroke="#969696" stroke-width="2" stroke-miterlimit="10" stroke-linecap="round" stroke-linejoin="round" stroke-dasharray="0.3 0.3"/>
<path opacity="0.7" d="M194.596 396.743L436.006 145.323" stroke="#969696" stroke-width="2" stroke-miterlimit="10" stroke-linecap="round" stroke-linejoin="round" stroke-dasharray="0.3 0.3"/>
<path opacity="0.7" d="M204.566 406.703L451.376 149.513" stroke="#969696" stroke-width="2" stroke-miterlimit="10" stroke-linecap="round" stroke-linejoin="round" stroke-dasharray="0.3 0.3"/>
<path opacity="0.7" d="M212.346 419.003L466.886 153.563" stroke="#969696" stroke-width="2" stroke-miterlimit="10" stroke-linecap="round" stroke-linejoin="round" stroke-dasharray="0.3 0.3"/>
<path opacity="0.7" d="M221.486 429.863L483.346 156.604" stroke="#969696" stroke-width="2" stroke-miterlimit="10" stroke-linecap="round" stroke-linejoin="round" stroke-dasharray="0.3 0.3"/>
<path opacity="0.7" d="M230.546 440.793L495.946 163.763" stroke="#969696" stroke-width="2" stroke-miterlimit="10" stroke-linecap="round" stroke-linejoin="round" stroke-dasharray="0.3 0.3"/>
<path opacity="0.7" d="M239.626 451.703L511.366 167.913" stroke="#969696" stroke-width="2" stroke-miterlimit="10" stroke-linecap="round" stroke-linejoin="round" stroke-dasharray="0.3 0.3"/>
<path opacity="0.7" d="M248.996 462.313L523.906 175.133" stroke="#969696" stroke-width="2" stroke-miterlimit="10" stroke-linecap="round" stroke-linejoin="round" stroke-dasharray="0.3 0.3"/>
<path opacity="0.7" d="M257.256 474.094L534.356 184.583" stroke="#969696" stroke-width="2" stroke-miterlimit="10" stroke-linecap="round" stroke-linejoin="round" stroke-dasharray="0.3 0.3"/>
<path opacity="0.7" d="M266.636 484.694L546.136 192.624" stroke="#969696" stroke-width="2" stroke-miterlimit="10" stroke-linecap="round" stroke-linejoin="round" stroke-dasharray="0.3 0.3"/>
<path opacity="0.7" d="M276.596 494.664L557.736 200.844" stroke="#969696" stroke-width="2" stroke-miterlimit="10" stroke-linecap="round" stroke-linejoin="round" stroke-dasharray="0.3 0.3"/>
<path opacity="0.7" d="M284.986 506.323L556.196 223.094" stroke="#969696" stroke-width="2" stroke-miterlimit="10" stroke-linecap="round" stroke-linejoin="round" stroke-dasharray="0.3 0.3"/>
</g>
</g>
<path d="M376.196 101.353C378.963 101.353 381.206 99.1105 381.206 96.3435C381.206 93.5766 378.963 91.3335 376.196 91.3335C373.429 91.3335 371.186 93.5766 371.186 96.3435C371.186 99.1105 373.429 101.353 376.196 101.353Z" fill="url(#paint0_linear_40_81)"/>
<path d="M376.196 104.923C380.934 104.923 384.776 101.082 384.776 96.3434C384.776 91.6048 380.934 87.7634 376.196 87.7634C371.457 87.7634 367.616 91.6048 367.616 96.3434C367.616 101.082 371.457 104.923 376.196 104.923Z" stroke="url(#paint1_linear_40_81)" stroke-miterlimit="10"/>
<path d="M267.336 343.243C267.336 346.593 264.616 349.313 261.266 349.313C257.916 349.313 255.196 346.593 255.196 343.243C255.196 339.893 257.916 337.173 261.266 337.173C264.616 337.173 267.336 339.883 267.336 343.243Z" stroke="url(#paint2_linear_40_81)" stroke-miterlimit="10"/>
<path d="M400.396 123.393C407.001 123.393 412.356 118.039 412.356 111.433C412.356 104.828 407.001 99.4734 400.396 99.4734C393.791 99.4734 388.436 104.828 388.436 111.433C388.436 118.039 393.791 123.393 400.396 123.393Z" fill="url(#paint3_linear_40_81)"/>
<path d="M62.8359 241.053C62.8359 244.113 60.3559 246.593 57.2959 246.593C54.2359 246.593 51.7559 244.113 51.7559 241.053C51.7559 237.993 54.2359 235.513 57.2959 235.513C60.3559 235.513 62.8359 237.993 62.8359 241.053Z" fill="url(#paint4_linear_40_81)"/>
<path d="M340.266 82.5533L349.186 71.9233" stroke="url(#paint5_linear_40_81)" stroke-miterlimit="10"/>
<path d="M343.006 84.8433L357.016 68.1533" stroke="url(#paint6_linear_40_81)" stroke-miterlimit="10"/>
<path d="M340.266 93.6732L354.656 76.5132" stroke="url(#paint7_linear_40_81)" stroke-miterlimit="10"/>
<path d="M68.146 206.313L77.056 195.683" stroke="url(#paint8_linear_40_81)" stroke-miterlimit="10"/>
<path d="M70.876 208.613L84.886 191.913" stroke="url(#paint9_linear_40_81)" stroke-miterlimit="10"/>
<path d="M68.146 217.433L82.526 200.273" stroke="url(#paint10_linear_40_81)" stroke-miterlimit="10"/>
<path d="M365.506 265.803L376.886 252.223" stroke="url(#paint11_linear_40_81)" stroke-miterlimit="10"/>
<path d="M368.996 268.733L386.886 247.403" stroke="url(#paint12_linear_40_81)" stroke-miterlimit="10"/>
<path d="M365.506 280.003L383.886 258.093" stroke="url(#paint13_linear_40_81)" stroke-miterlimit="10"/>
<g opacity="0.5">
<path opacity="0.5" d="M347.046 28.7434L333.686 43.6334" stroke="url(#paint14_linear_40_81)" stroke-miterlimit="10"/>
<path opacity="0.5" d="M350.876 32.1833L329.896 55.5733" stroke="url(#paint15_linear_40_81)" stroke-miterlimit="10"/>
<path opacity="0.5" d="M362.916 26.4834L341.356 50.5134" stroke="url(#paint16_linear_40_81)" stroke-miterlimit="10"/>
</g>
<path d="M62.8359 259.343L79.7859 239.133" stroke="url(#paint17_linear_40_81)" stroke-miterlimit="10"/>
<path d="M68.0359 263.703L94.6659 231.963" stroke="url(#paint18_linear_40_81)" stroke-miterlimit="10"/>
<path d="M62.8359 280.483L90.1859 247.863" stroke="url(#paint19_linear_40_81)" stroke-miterlimit="10"/>
<path d="M94.6659 215.513C96.505 215.513 97.9959 214.023 97.9959 212.183C97.9959 210.344 96.505 208.854 94.6659 208.854C92.8268 208.854 91.3359 210.344 91.3359 212.183C91.3359 214.023 92.8268 215.513 94.6659 215.513Z" fill="white"/>
<path d="M96.8558 282.103C96.8558 283.943 95.3658 285.433 93.5258 285.433C91.6858 285.433 90.1958 283.943 90.1958 282.103C90.1958 280.263 91.6858 278.773 93.5258 278.773C95.3658 278.773 96.8558 280.263 96.8558 282.103Z" fill="white"/>
<path d="M79.4159 120.603C79.4159 121.453 78.7259 122.143 77.8759 122.143C77.0259 122.143 76.3359 121.453 76.3359 120.603C76.3359 119.753 77.0259 119.063 77.8759 119.063C78.7259 119.073 79.4159 119.753 79.4159 120.603Z" fill="white"/>
<path d="M374.696 165.113C375.546 165.113 376.236 164.424 376.236 163.573C376.236 162.723 375.546 162.033 374.696 162.033C373.845 162.033 373.156 162.723 373.156 163.573C373.156 164.424 373.845 165.113 374.696 165.113Z" fill="white"/>
<path d="M389.966 302.183C389.966 303.033 389.276 303.723 388.426 303.723C387.576 303.723 386.886 303.033 386.886 302.183C386.886 301.333 387.576 300.643 388.426 300.643C389.276 300.653 389.966 301.333 389.966 302.183Z" fill="white"/>
<path d="M62.8359 99.6734C64.675 99.6734 66.1659 98.1826 66.1659 96.3434C66.1659 94.5043 64.675 93.0134 62.8359 93.0134C60.9968 93.0134 59.5059 94.5043 59.5059 96.3434C59.5059 98.1826 60.9968 99.6734 62.8359 99.6734Z" fill="white"/>
<path d="M153.506 317.773C153.506 319.613 152.016 321.103 150.176 321.103C148.336 321.103 146.846 319.613 146.846 317.773C146.846 315.933 148.336 314.443 150.176 314.443C152.016 314.443 153.506 315.933 153.506 317.773Z" fill="white"/>
<path d="M368.836 315.763C368.836 317.603 367.346 319.093 365.506 319.093C363.666 319.093 362.176 317.603 362.176 315.763C362.176 313.923 363.666 312.433 365.506 312.433C367.346 312.433 368.836 313.923 368.836 315.763Z" fill="white"/>
<path d="M425.846 217.433C425.846 219.273 424.356 220.763 422.516 220.763C420.676 220.763 419.186 219.273 419.186 217.433C419.186 215.593 420.676 214.103 422.516 214.103C424.356 214.093 425.846 215.593 425.846 217.433Z" fill="white"/>
<path d="M25.5859 171.773C27.425 171.773 28.9158 170.282 28.9158 168.443C28.9158 166.604 27.425 165.113 25.5859 165.113C23.7468 165.113 22.2559 166.604 22.2559 168.443C22.2559 170.282 23.7468 171.773 25.5859 171.773Z" fill="white"/>
<path d="M119.766 321.173L128.966 324.913L133.106 310.613L119.766 321.173Z" fill="#FF7E3D"/>
<path d="M94.666 309.233L102.146 328.333L130.856 303.193L94.666 309.233Z" fill="url(#paint20_linear_40_81)"/>
<path d="M418.736 151.983L414.726 172.103L382.046 152.393L418.736 151.983Z" fill="#FF7E3D"/>
<path d="M88.7256 75.4734L76.5557 84.0034L91.1956 91.5734L88.7256 75.4734Z" fill="#FF7E3D"/>
<path d="M386.966 185.763L373.136 180.333L374.916 196.714L386.966 185.763Z" fill="url(#paint21_linear_40_81)"/>
<path d="M260.236 40.0033C246.786 32.5233 230.126 27.6033 214.846 31.9833C202.986 35.3833 194.036 44.2433 187.276 54.2233C179.666 65.4533 174.306 78.0433 168.626 90.3133C165.146 97.8233 161.356 105.043 156.276 111.623C150.816 118.703 144.316 124.983 137.066 130.203C129.566 135.593 121.306 139.803 112.546 142.713C102.556 146.033 92.1761 147.873 81.9261 150.193C65.0761 154.023 47.2061 159.973 36.1761 174.153C31.2961 180.423 28.3961 188.023 28.2661 195.993C28.1261 204.173 30.7461 212.233 34.8761 219.233C44.2461 235.143 60.5361 244.243 77.5361 250.073C95.7361 256.313 114.946 259.283 132.766 266.683C141.666 270.383 150.186 275.233 157.246 281.863C164.246 288.443 169.656 296.453 174.466 304.713C183.536 320.313 190.836 337.323 203.906 350.153C209.936 356.073 217.146 360.863 225.286 363.303C233.466 365.743 242.206 365.743 250.516 363.973C289.566 355.643 306.946 316.293 322.686 283.983C331.486 265.923 341.246 248.343 356.076 234.493C370.396 221.123 387.486 210.923 400.836 196.483C412.696 183.663 421.616 167.243 419.526 149.273C417.536 132.193 406.906 117.083 393.866 106.393C378.846 94.0833 360.266 86.8833 342.226 80.2633C332.546 76.7133 322.746 73.4033 313.346 69.1433C304.066 64.9333 295.146 60.0033 286.336 54.9033C282.126 52.4633 277.946 49.9833 273.746 47.5233C269.286 44.9133 264.656 42.6533 260.146 40.1433C259.796 39.9433 259.476 40.4833 259.826 40.6833C264.326 43.1833 268.606 46.0933 273.046 48.7033C277.246 51.1633 281.426 53.6433 285.636 56.0833C294.246 61.0733 302.966 65.8933 312.016 70.0333C329.966 78.2533 349.146 83.4033 367.046 91.7633C383.736 99.5533 399.436 110.013 409.456 125.833C414.056 133.093 417.336 141.293 418.236 149.873C419.176 158.823 417.376 167.773 413.556 175.883C405.556 192.873 390.646 204.993 376.136 216.263C368.436 222.243 360.656 228.173 353.626 234.943C346.826 241.483 340.976 248.873 335.896 256.813C325.536 273.003 318.286 290.883 309.396 307.873C300.716 324.453 290.096 341.053 274.476 351.913C260.046 361.943 241.036 367.323 223.926 361.443C207.086 355.653 195.956 340.323 187.476 325.483C178.476 309.723 170.996 292.433 157.266 280.053C143.706 267.833 125.876 262.053 108.576 257.433C90.2961 252.553 71.2061 248.553 55.0861 238.133C40.8661 228.943 29.0461 213.043 29.6061 195.453C30.1661 177.633 44.5661 165.103 59.8061 158.383C78.0961 150.313 98.6161 149.603 117.216 142.443C132.796 136.443 146.606 126.103 156.876 112.963C165.996 101.303 171.136 87.4133 177.546 74.2133C183.076 62.8233 189.346 51.1433 198.836 42.5233C208.636 33.6133 221.216 30.2533 234.256 32.0733C243.246 33.3233 251.796 36.5233 259.746 40.8533C260.286 41.1233 260.766 40.3033 260.236 40.0033Z" fill="url(#paint22_linear_40_81)"/>
<g opacity="0.4248">
<path opacity="0.4248" d="M265.436 11.0433C250.056 2.49332 230.996 -3.12667 213.526 1.89333C199.976 5.78333 189.746 15.9133 182.026 27.3133C173.316 40.1733 167.186 54.5833 160.676 68.6233C156.686 77.2333 152.346 85.4933 146.536 93.0333C140.286 101.143 132.836 108.353 124.516 114.323C115.926 120.503 106.456 125.323 96.4261 128.653C84.9961 132.453 73.1061 134.553 61.3761 137.223C42.1061 141.603 21.6561 148.403 9.0361 164.623C3.4661 171.783 0.1661 180.463 0.00609968 189.563C-0.1539 198.913 2.8461 208.113 7.5561 216.113C18.2661 234.303 36.8961 244.713 56.3361 251.373C77.1761 258.513 99.1661 261.913 119.566 270.383C129.776 274.623 139.546 280.183 147.636 287.783C155.656 295.313 161.856 304.493 167.366 313.963C177.736 331.813 186.096 351.283 201.056 365.963C207.946 372.733 216.176 378.203 225.486 380.993C234.836 383.783 244.816 383.783 254.316 381.763C298.986 372.233 318.866 327.203 336.876 290.233C346.956 269.553 358.126 249.413 375.126 233.553C391.526 218.253 411.086 206.573 426.366 190.043C439.926 175.383 450.126 156.613 447.726 136.063C445.446 116.543 433.286 99.2633 418.376 87.0433C401.196 72.9633 379.936 64.7233 359.306 57.1533C348.216 53.0833 336.986 49.2933 326.216 44.4133C315.596 39.5933 305.376 33.9533 295.296 28.1033C290.476 25.3133 285.686 22.4733 280.886 19.6533C275.786 16.6633 270.506 14.0333 265.346 11.1633C264.996 10.9633 264.676 11.5033 265.026 11.7033C270.176 14.5633 275.106 17.8533 280.196 20.8333C284.996 23.6533 289.796 26.4833 294.606 29.2833C304.456 34.9933 314.436 40.5133 324.796 45.2533C345.346 54.6633 367.306 60.5533 387.796 70.1233C406.916 79.0533 424.896 91.0333 436.386 109.153C441.656 117.473 445.416 126.883 446.446 136.723C447.526 146.993 445.456 157.243 441.066 166.553C431.896 186.013 414.826 199.893 398.216 212.803C389.396 219.653 380.496 226.433 372.446 234.183C364.666 241.663 357.976 250.123 352.166 259.203C340.306 277.743 332.006 298.213 321.826 317.663C311.876 336.663 299.716 355.673 281.816 368.113C265.276 379.603 243.476 385.773 223.866 379.023C204.566 372.383 191.796 354.823 182.076 337.803C171.776 319.773 163.216 299.983 147.506 285.813C131.996 271.833 111.596 265.223 91.8061 259.943C70.8761 254.353 49.0061 249.763 30.5561 237.843C14.2561 227.313 0.706102 209.073 1.3361 188.903C1.9761 168.473 18.4861 154.093 35.9561 146.383C56.8961 137.143 80.4061 136.333 101.706 128.123C119.516 121.263 135.316 109.423 147.066 94.4033C157.506 81.0533 163.386 65.1633 170.716 50.0633C177.056 37.0133 184.236 23.6433 195.106 13.7633C206.356 3.54332 220.776 -0.30668 235.746 1.79332C246.046 3.23332 255.836 6.89333 264.936 11.8633C265.496 12.1533 265.976 11.3333 265.436 11.0433Z" fill="url(#paint23_linear_40_81)"/>
</g>
<path d="M337.816 237.173C349.596 224.443 364.496 215.303 377.356 203.783C388.566 193.743 398.866 180.983 401.386 165.733C403.806 151.013 398.086 136.533 388.856 125.223C378.576 112.623 364.266 104.443 349.526 98.0833C333.416 91.1333 316.406 86.4033 300.606 78.7233C284.866 71.0633 270.406 61.1433 254.896 53.0933C243.146 46.9933 228.716 43.2633 215.646 47.0333C205.586 49.9333 197.786 57.1733 191.806 65.5133C184.976 75.0333 180.166 85.8533 175.296 96.4433C172.506 102.523 169.776 108.623 166.106 114.243C161.996 120.523 157.026 126.233 151.396 131.193C145.626 136.283 139.146 140.563 132.206 143.873C124.216 147.683 115.626 149.913 107.016 151.823C91.356 155.293 75.036 158.093 61.886 167.953C56.356 172.103 51.576 177.383 48.786 183.773C45.996 190.153 45.436 197.223 46.846 204.023C49.876 218.603 60.576 230.343 73.206 237.583C101.746 253.953 139.646 251.143 164.166 275.043C176.066 286.643 182.516 302.263 190.816 316.353C198.186 328.873 207.676 341.323 221.546 346.953C235.696 352.703 251.816 349.703 264.846 342.483C278.936 334.683 289.256 321.803 297.356 308.163C299.396 304.723 301.316 301.223 303.156 297.673C305.056 294.023 306.516 290.203 308.306 286.503C308.476 286.143 307.946 285.823 307.766 286.183C305.996 289.853 303.856 293.363 301.976 296.973C300.086 300.603 298.126 304.203 296.026 307.723C291.896 314.653 287.266 321.303 281.786 327.233C271.216 338.673 256.966 347.273 241.176 348.493C233.586 349.083 225.926 347.793 219.096 344.373C212.426 341.033 206.806 335.983 202.046 330.293C192.016 318.303 186.016 303.723 177.856 290.513C173.796 283.943 169.156 277.663 163.406 272.473C157.626 267.253 150.856 263.253 143.756 260.123C129.166 253.683 113.416 250.783 98.196 246.253C83.036 241.743 67.626 235.293 57.456 222.653C48.246 211.203 43.876 195.243 51.316 181.733C58.536 168.623 73.206 161.643 87.046 157.833C103.236 153.373 120.206 151.683 135.306 143.853C148.046 137.253 159.056 127.343 166.976 115.383C173.736 105.183 177.906 93.4033 183.386 82.5033C188.226 72.8933 193.816 63.1533 202.056 56.0333C210.596 48.6533 221.386 45.8633 232.516 47.2633C249.126 49.3433 263.166 59.2533 277.276 67.4933C284.706 71.8333 292.196 76.0933 299.946 79.8533C307.416 83.4833 315.116 86.4333 322.916 89.2633C351.936 99.8333 387.336 112.043 398.256 144.343C400.666 151.463 401.376 159.083 399.966 166.483C398.526 174.023 395.096 181.023 390.686 187.263C381.266 200.623 367.826 210.083 355.186 220.123C348.816 225.183 342.616 230.463 337.146 236.493C336.736 236.953 337.406 237.623 337.816 237.173Z" fill="url(#paint24_linear_40_81)"/>
<defs>
<linearGradient id="paint0_linear_40_81" x1="371.19" y1="96.3475" x2="381.2" y2="96.3475" gradientUnits="userSpaceOnUse">
<stop offset="0.0277" stop-color="#FFD24D"/>
<stop offset="0.7154" stop-color="#F6BE56"/>
<stop offset="1" stop-color="#F2B45A"/>
</linearGradient>
<linearGradient id="paint1_linear_40_81" x1="367.112" y1="96.3474" x2="385.278" y2="96.3474" gradientUnits="userSpaceOnUse">
<stop offset="0.0277" stop-color="#FFD24D"/>
<stop offset="0.7154" stop-color="#F6BE56"/>
<stop offset="1" stop-color="#F2B45A"/>
</linearGradient>
<linearGradient id="paint2_linear_40_81" x1="254.693" y1="343.24" x2="267.831" y2="343.24" gradientUnits="userSpaceOnUse">
<stop offset="0.0277" stop-color="#FFD24D"/>
<stop offset="0.7154" stop-color="#F6BE56"/>
<stop offset="1" stop-color="#F2B45A"/>
</linearGradient>
<linearGradient id="paint3_linear_40_81" x1="388.431" y1="111.438" x2="412.358" y2="111.438" gradientUnits="userSpaceOnUse">
<stop offset="0.0277" stop-color="#FFD24D"/>
<stop offset="0.7154" stop-color="#F6BE56"/>
<stop offset="1" stop-color="#F2B45A"/>
</linearGradient>
<linearGradient id="paint4_linear_40_81" x1="51.7635" y1="241.05" x2="62.8354" y2="241.05" gradientUnits="userSpaceOnUse">
<stop offset="0.0277" stop-color="#FFD24D"/>
<stop offset="0.7154" stop-color="#F6BE56"/>
<stop offset="1" stop-color="#F2B45A"/>
</linearGradient>
<linearGradient id="paint5_linear_40_81" x1="339.49" y1="77.6959" x2="349.965" y2="76.7779" gradientUnits="userSpaceOnUse">
<stop offset="0.0277" stop-color="#FFD24D"/>
<stop offset="0.7154" stop-color="#F6BE56"/>
<stop offset="1" stop-color="#F2B45A"/>
</linearGradient>
<linearGradient id="paint6_linear_40_81" x1="341.983" y1="77.2018" x2="358.038" y2="75.7949" gradientUnits="userSpaceOnUse">
<stop offset="0.0277" stop-color="#FFD24D"/>
<stop offset="0.7154" stop-color="#F6BE56"/>
<stop offset="1" stop-color="#F2B45A"/>
</linearGradient>
<linearGradient id="paint7_linear_40_81" x1="339.227" y1="85.8141" x2="355.703" y2="84.3703" gradientUnits="userSpaceOnUse">
<stop offset="0.0277" stop-color="#FFD24D"/>
<stop offset="0.7154" stop-color="#F6BE56"/>
<stop offset="1" stop-color="#F2B45A"/>
</linearGradient>
<linearGradient id="paint8_linear_40_81" x1="67.7584" y1="200.999" x2="77.4392" y2="200.999" gradientUnits="userSpaceOnUse">
<stop offset="0.0277" stop-color="#FFD24D"/>
<stop offset="0.1674" stop-color="#EBC34D"/>
<stop offset="0.4544" stop-color="#B69D4D"/>
<stop offset="0.8604" stop-color="#625F4E"/>
<stop offset="1" stop-color="#44494E"/>
</linearGradient>
<linearGradient id="paint9_linear_40_81" x1="70.4958" y1="200.26" x2="85.2674" y2="200.26" gradientUnits="userSpaceOnUse">
<stop offset="0.0277" stop-color="#FFD24D"/>
<stop offset="0.1674" stop-color="#EBC34D"/>
<stop offset="0.4544" stop-color="#B69D4D"/>
<stop offset="0.8604" stop-color="#625F4E"/>
<stop offset="1" stop-color="#44494E"/>
</linearGradient>
<linearGradient id="paint10_linear_40_81" x1="67.7584" y1="208.854" x2="82.9139" y2="208.854" gradientUnits="userSpaceOnUse">
<stop offset="0.0277" stop-color="#FFD24D"/>
<stop offset="0.1674" stop-color="#EBC34D"/>
<stop offset="0.4544" stop-color="#B69D4D"/>
<stop offset="0.8604" stop-color="#625F4E"/>
<stop offset="1" stop-color="#44494E"/>
</linearGradient>
<linearGradient id="paint11_linear_40_81" x1="364.602" y1="259.592" x2="377.788" y2="258.436" gradientUnits="userSpaceOnUse">
<stop offset="0.0277" stop-color="#FFD24D"/>
<stop offset="0.7154" stop-color="#F6BE56"/>
<stop offset="1" stop-color="#F2B45A"/>
</linearGradient>
<linearGradient id="paint12_linear_40_81" x1="367.787" y1="258.961" x2="388.1" y2="257.18" gradientUnits="userSpaceOnUse">
<stop offset="0.0277" stop-color="#FFD24D"/>
<stop offset="0.7154" stop-color="#F6BE56"/>
<stop offset="1" stop-color="#F2B45A"/>
</linearGradient>
<linearGradient id="paint13_linear_40_81" x1="364.267" y1="269.962" x2="385.118" y2="268.135" gradientUnits="userSpaceOnUse">
<stop offset="0.0277" stop-color="#FFD24D"/>
<stop offset="0.7154" stop-color="#F6BE56"/>
<stop offset="1" stop-color="#F2B45A"/>
</linearGradient>
<linearGradient id="paint14_linear_40_81" x1="339.964" y1="28.7768" x2="340.767" y2="43.6056" gradientUnits="userSpaceOnUse">
<stop offset="0.0277" stop-color="#FFD24D"/>
<stop offset="0.7154" stop-color="#F6BE56"/>
<stop offset="1" stop-color="#F2B45A"/>
</linearGradient>
<linearGradient id="paint15_linear_40_81" x1="339.765" y1="32.436" x2="341.006" y2="55.33" gradientUnits="userSpaceOnUse">
<stop offset="0.0277" stop-color="#FFD24D"/>
<stop offset="0.7154" stop-color="#F6BE56"/>
<stop offset="1" stop-color="#F2B45A"/>
</linearGradient>
<linearGradient id="paint16_linear_40_81" x1="351.5" y1="26.7504" x2="352.773" y2="50.2522" gradientUnits="userSpaceOnUse">
<stop offset="0.0277" stop-color="#FFD24D"/>
<stop offset="0.7154" stop-color="#F6BE56"/>
<stop offset="1" stop-color="#F2B45A"/>
</linearGradient>
<linearGradient id="paint17_linear_40_81" x1="61.6692" y1="250.083" x2="80.9487" y2="248.394" gradientUnits="userSpaceOnUse">
<stop offset="0.0277" stop-color="#FFD24D"/>
<stop offset="0.1674" stop-color="#EBC34D"/>
<stop offset="0.4544" stop-color="#B69D4D"/>
<stop offset="0.8604" stop-color="#625F4E"/>
<stop offset="1" stop-color="#44494E"/>
</linearGradient>
<linearGradient id="paint18_linear_40_81" x1="66.4082" y1="249.144" x2="96.2955" y2="246.525" gradientUnits="userSpaceOnUse">
<stop offset="0.0277" stop-color="#FFD24D"/>
<stop offset="0.1674" stop-color="#EBC34D"/>
<stop offset="0.4544" stop-color="#B69D4D"/>
<stop offset="0.8604" stop-color="#625F4E"/>
<stop offset="1" stop-color="#44494E"/>
</linearGradient>
<linearGradient id="paint19_linear_40_81" x1="61.1693" y1="265.517" x2="91.8564" y2="262.828" gradientUnits="userSpaceOnUse">
<stop offset="0.0277" stop-color="#FFD24D"/>
<stop offset="0.1674" stop-color="#EBC34D"/>
<stop offset="0.4544" stop-color="#B69D4D"/>
<stop offset="0.8604" stop-color="#625F4E"/>
<stop offset="1" stop-color="#44494E"/>
</linearGradient>
<linearGradient id="paint20_linear_40_81" x1="94.6646" y1="315.764" x2="130.856" y2="315.764" gradientUnits="userSpaceOnUse">
<stop offset="0.0277" stop-color="#FFD24D"/>
<stop offset="0.7154" stop-color="#FFBE56"/>
<stop offset="1" stop-color="#FFB45A"/>
</linearGradient>
<linearGradient id="paint21_linear_40_81" x1="371.449" y1="182.082" x2="381.328" y2="191.609" gradientUnits="userSpaceOnUse">
<stop offset="0.0277" stop-color="#FFD24D"/>
<stop offset="0.7154" stop-color="#F6BE56"/>
<stop offset="1" stop-color="#F2B45A"/>
</linearGradient>
<linearGradient id="paint22_linear_40_81" x1="50.4541" y1="264.607" x2="414.74" y2="132.018" gradientUnits="userSpaceOnUse">
<stop offset="0.0277" stop-color="#FFD24D"/>
<stop offset="0.0356" stop-color="#F7CC4C"/>
<stop offset="0.0797" stop-color="#CEAE4A"/>
<stop offset="0.1292" stop-color="#A89348"/>
<stop offset="0.1831" stop-color="#887B45"/>
<stop offset="0.2427" stop-color="#6C6744"/>
<stop offset="0.3099" stop-color="#565742"/>
<stop offset="0.3884" stop-color="#454B41"/>
<stop offset="0.4856" stop-color="#3A4241"/>
<stop offset="0.6218" stop-color="#333D40"/>
<stop offset="1" stop-color="#313C40"/>
</linearGradient>
<linearGradient id="paint23_linear_40_81" x1="0.00489968" y1="191.601" x2="448.084" y2="191.601" gradientUnits="userSpaceOnUse">
<stop stop-color="#5C5A44"/>
<stop offset="0.6103" stop-color="#3F4541"/>
<stop offset="1" stop-color="#313C40"/>
</linearGradient>
<linearGradient id="paint24_linear_40_81" x1="138.716" y1="90.4005" x2="329.413" y2="281.098" gradientUnits="userSpaceOnUse">
<stop stop-color="#313C40"/>
<stop offset="0.251" stop-color="#333E40"/>
<stop offset="0.397" stop-color="#3C4441"/>
<stop offset="0.5161" stop-color="#4A4E42"/>
<stop offset="0.6208" stop-color="#5E5D43"/>
<stop offset="0.716" stop-color="#786F44"/>
<stop offset="0.8042" stop-color="#988746"/>
<stop offset="0.8873" stop-color="#BDA249"/>
<stop offset="0.964" stop-color="#E8C14C"/>
<stop offset="1" stop-color="#FFD24D"/>
</linearGradient>
</defs>
</svg>
