<svg width="42" height="42" viewBox="0 0 42 42" fill="none" xmlns="http://www.w3.org/2000/svg">
<g clip-path="url(#clip0_40_344)">
<path d="M18.9902 11.943C18.9794 9.77741 17.2088 8.01562 15.0431 8.01562H13.4022C12.985 9.09762 11.9331 11.8257 11.6178 12.6436L14.9563 14.1762V11.9154C14.9563 11.7223 15.1129 11.5659 15.3058 11.5659C15.4989 11.5659 15.6553 11.7223 15.6555 11.9153C15.6555 11.9298 15.6552 11.9446 15.6544 11.9598L15.685 24C15.685 24.9212 16.4318 25.6679 17.353 25.6679C18.2742 25.6679 19.0209 24.9212 19.0209 24L18.9902 11.943Z" fill="#519D54"/>
<path d="M6.12151 21.755L6.12233 39.9505C6.12233 41.0358 6.96635 41.9602 8.05096 41.9987C9.18964 42.0391 10.1254 41.1281 10.1254 39.9985V24H10.8654C10.7612 23.9604 6.12151 21.755 6.12151 21.755Z" fill="#519D54"/>
<path d="M14.9563 19.6664L13.4544 22.938C13.0334 23.8551 11.9843 24.349 10.9896 24.0424V39.9985C10.9896 41.1039 11.8857 42 12.9911 42C14.0966 42 14.9927 41.1039 14.9927 39.9985C14.9927 39.7233 14.9563 19.9411 14.9563 19.6664Z" fill="#519D54"/>
<path d="M11.6914 10.7294L11.0134 9.49607L11.6151 8.40177C11.7047 8.23861 11.5865 8.03845 11.4002 8.03845H9.74712C9.56099 8.03845 9.44237 8.23844 9.53228 8.40177L10.1352 9.49836L9.45583 10.7339C9.37683 10.8772 9.35107 11.0438 9.38298 11.2044L9.61406 12.3682C10.4757 12.0581 11.1039 12.4076 11.4721 12.5766L11.7624 11.2089C11.797 11.0457 11.7718 10.8755 11.6914 10.7294Z" fill="#519D54"/>
<path d="M14.6299 15.4622L10.6162 13.6197C10.2416 13.4477 9.79904 13.6124 9.62743 13.9863L8.59351 16.2386L10.6285 17.3692C12.0823 18.1771 12.6061 20.0104 11.7984 21.4642C11.5476 21.9153 11.1974 22.2759 10.791 22.536L11.2797 22.7603C11.6542 22.9322 12.0968 22.7678 12.2685 22.3937L14.9965 16.4512C15.1683 16.0768 15.0042 15.634 14.6299 15.4622Z" fill="#519D54"/>
<path d="M10.5567 6.91359C12.4658 6.91359 14.0135 5.36593 14.0135 3.4568C14.0135 1.54766 12.4658 0 10.5567 0C8.64754 0 7.09988 1.54766 7.09988 3.4568C7.09988 5.36593 8.64754 6.91359 10.5567 6.91359Z" fill="#519D54"/>
<path d="M9.97615 18.5434L5.43473 16.0202C5.4431 14.6565 5.45138 13.3089 5.45975 11.9597C5.46065 11.7772 5.60905 11.6299 5.79157 11.6303C5.974 11.6308 6.12166 11.7788 6.12166 11.9613V14.8649L7.44958 15.6027L8.44159 13.4417C8.64929 12.9891 9.01195 12.6365 9.44909 12.4349C9.1423 11.639 8.08557 8.89837 7.74506 8.01538H6.07096C3.90542 8.01538 2.13478 9.77708 2.12387 11.9408C2.12001 12.5587 2.09655 16.376 2.09278 16.9879C2.089 17.5972 2.41795 18.1601 2.95066 18.4561L8.35595 21.4592C9.1619 21.9073 10.177 21.6159 10.624 20.8115C11.0714 20.0063 10.7814 18.9908 9.97615 18.5434Z" fill="#519D54"/>
<path d="M27.9576 15.6088C27.8774 15.356 27.6075 15.2161 27.3545 15.2963L25.5362 15.8733L25.2428 14.9492C25.1784 14.7465 24.9082 14.7064 24.7878 14.8817L23.7082 16.4534L25.5488 22.254C25.6002 22.4162 25.7735 22.5059 25.9357 22.4546L26.7059 22.2101C26.4404 21.6267 26.4306 20.9652 26.6662 20.3857C27.0439 19.4563 27.9865 18.8602 29.0202 18.9572L27.9576 15.6088Z" fill="#519D54"/>
<path d="M38.0368 18.017H34.8472C33.8594 18.017 33.0585 18.8735 33.0585 19.93V20.4814L36.7157 19.1745L33.0176 21.6958L29.2461 20.1636C28.6438 19.9189 27.9564 20.2115 27.7129 20.811C27.4685 21.4128 27.7578 22.1001 28.3603 22.3442C31.8025 23.7426 30.9431 23.3935 32.7163 24.1139C33.0775 24.2605 33.4984 24.2166 33.8221 23.9959L37.9058 21.2117L34.655 24.7591C34.3809 25.0583 33.7507 25.3578 33.0584 25.3278C33.0584 25.3278 33.0222 25.2133 33.0222 40.5094C33.0222 41.3326 33.6896 42.0001 34.5129 42.0001C34.7359 42.0001 34.9466 41.9498 35.1365 41.8622C34.9009 41.4661 34.7652 41.0037 34.7652 40.5095V29.745H35.9247V40.5091C35.9247 41.3324 36.5921 41.9999 37.4154 41.9999C38.2388 41.9999 38.9062 41.3325 38.9062 40.5091V29.65C39.4433 29.4449 39.8254 28.9262 39.8254 28.3171C39.8254 27.3838 39.8254 20.8223 39.8254 19.9299C39.8255 18.8735 39.0247 18.017 38.0368 18.017Z" fill="#519D54"/>
<path d="M36.4279 17.1788C38.3495 17.1788 39.9073 15.621 39.9073 13.6994C39.9073 11.7779 38.3495 10.2201 36.4279 10.2201C34.5064 10.2201 32.9486 11.7779 32.9486 13.6994C32.9486 15.621 34.5064 17.1788 36.4279 17.1788Z" fill="#519D54"/>
</g>
<defs>
<clipPath id="clip0_40_344">
<rect width="42" height="42" fill="white"/>
</clipPath>
</defs>
</svg>
