<svg width="30" height="30" viewBox="0 0 30 30" fill="none" xmlns="http://www.w3.org/2000/svg">
<g opacity="0.7" clip-path="url(#clip0_40_477)">
<path d="M29.32 5.55361C28.8487 5.76264 28.3641 5.93906 27.869 6.08228C28.4552 5.41938 28.9021 4.63938 29.1749 3.78583C29.2361 3.59451 29.1727 3.38509 29.0154 3.25996C28.8583 3.13474 28.6401 3.11974 28.4672 3.22222C27.4157 3.84583 26.2813 4.29399 25.0919 4.55606C23.8937 3.38528 22.2664 2.71899 20.5841 2.71899C17.0329 2.71899 14.1438 5.60799 14.1438 9.15903C14.1438 9.4387 14.1615 9.71683 14.1966 9.99109C9.78996 9.60419 5.69322 7.43828 2.88 3.98741C2.77974 3.86441 2.62529 3.79812 2.46716 3.8108C2.30893 3.82319 2.16677 3.91241 2.08684 4.04954C1.51626 5.02861 1.21461 6.14838 1.21461 7.2877C1.21461 8.83948 1.76864 10.3118 2.74732 11.4623C2.44974 11.3592 2.16097 11.2304 1.88535 11.0774C1.73739 10.995 1.55681 10.9963 1.40981 11.0806C1.26271 11.1649 1.17048 11.3199 1.16661 11.4893C1.16594 11.5179 1.16594 11.5464 1.16594 11.5754C1.16594 13.8917 2.41258 15.9771 4.31855 17.1137C4.15481 17.0973 3.99116 17.0736 3.82858 17.0425C3.66097 17.0105 3.48861 17.0693 3.37558 17.1971C3.26235 17.3248 3.2249 17.5029 3.27706 17.6655C3.98255 19.8681 5.7989 21.4882 7.99471 21.9821C6.17351 23.1228 4.09084 23.7203 1.90452 23.7203C1.44832 23.7203 0.989516 23.6934 0.540484 23.6403C0.31742 23.6138 0.104129 23.7455 0.0281617 23.9576C-0.047806 24.1699 0.0327101 24.4065 0.222484 24.5281C3.03116 26.329 6.2788 27.2809 9.61413 27.2809C16.171 27.2809 20.2727 24.1889 22.559 21.5951C25.41 18.3608 27.0451 14.0798 27.0451 9.8499C27.0451 9.67319 27.0424 9.49474 27.037 9.31687C28.1618 8.46941 29.1302 7.4438 29.9182 6.26499C30.0379 6.08596 30.025 5.84935 29.8863 5.68454C29.7478 5.51964 29.517 5.46632 29.32 5.55361Z" fill="black"/>
</g>
<defs>
<clipPath id="clip0_40_477">
<rect width="30" height="30" fill="white"/>
</clipPath>
</defs>
</svg>
